<?xml version="1.0" encoding="UTF-8" standalone="no"?>
<svg
   xmlns:osb="http://www.openswatchbook.org/uri/2009/osb"
   xmlns:dc="http://purl.org/dc/elements/1.1/"
   xmlns:cc="http://creativecommons.org/ns#"
   xmlns:rdf="http://www.w3.org/1999/02/22-rdf-syntax-ns#"
   xmlns:svg="http://www.w3.org/2000/svg"
   xmlns="http://www.w3.org/2000/svg"
   xmlns:sodipodi="http://sodipodi.sourceforge.net/DTD/sodipodi-0.dtd"
   xmlns:inkscape="http://www.inkscape.org/namespaces/inkscape"
   width="150"
   height="150"
   version="1.1"
   viewBox="0 0 39.6875 39.6875"
   id="svg861"
   sodipodi:docname="target1.svg"
   inkscape:version="0.92.4 (5da689c313, 2019-01-14)">
  <defs
     id="defs865">
    <linearGradient
       id="linearGradient2356"
       osb:paint="solid">
      <stop
         style="stop-color:#000000;stop-opacity:1;"
         offset="0"
         id="stop2354" />
    </linearGradient>
  </defs>
  <sodipodi:namedview
     pagecolor="#ffffff"
     bordercolor="#666666"
     borderopacity="1"
     objecttolerance="10"
     gridtolerance="10"
     guidetolerance="10"
     inkscape:pageopacity="0"
     inkscape:pageshadow="2"
     inkscape:window-width="1920"
     inkscape:window-height="1051"
     id="namedview863"
     showgrid="false"
     inkscape:zoom="0.71090067"
     inkscape:cx="45.887152"
     inkscape:cy="303.34169"
     inkscape:window-x="-9"
     inkscape:window-y="-9"
     inkscape:window-maximized="1"
     inkscape:current-layer="g859"
     units="px"
     inkscape:pagecheckerboard="true" />
  <metadata
     id="metadata841">
    <rdf:RDF>
      <cc:Work
         rdf:about="">
        <dc:format>image/svg+xml</dc:format>
        <dc:type
           rdf:resource="http://purl.org/dc/dcmitype/StillImage" />
        <dc:title></dc:title>
      </cc:Work>
    </rdf:RDF>
  </metadata>
  <g
     id="g859"
     transform="matrix(2.5379148,0,0,2.5379148,-124.20813,-366.28504)">
    <text
       x="-69.320831"
       y="14.689583"
       font-size="10.583px"
       letter-spacing="0px"
       word-spacing="0px"
       style="font-size:10.58300018px;line-height:1.25;font-family:sans-serif;letter-spacing:0px;word-spacing:0px;fill:#000000;stroke-width:0.26458001"
       xml:space="preserve"
       id="text855"><tspan
         style="stroke-width:0.26458001"
         x="-69.320831"
         y="24.053352"
         id="tspan853" /></text>
    <g
       id="g838"
       transform="matrix(0.24396596,0,0,0.24396597,34.042763,125.15765)">
      <g
         transform="matrix(0.90706372,0,0,0.90706692,23.117683,15.306969)"
         id="g879">
        <circle
           transform="matrix(0.39402426,0,0,0.39402426,48.941016,149.53781)"
           style="stroke:#666666;stroke-width:4.90198231"
           cx="76.155312"
           cy="-111.23124"
           r="59.762817"
           id="circle843" />
        <circle
           transform="matrix(0.39402426,0,0,0.39402426,48.941016,149.53781)"
           style="fill:#1f2749;fill-opacity:1;fill-rule:nonzero;stroke:#666666;stroke-width:2.45094061"
           cx="76.155312"
           cy="-111.23124"
           id="circle845"
           r="55.062595" />
        <path
           transform="matrix(0.39402426,0,0,0.39402426,48.941016,149.53781)"
           inkscape:connector-curvature="0"
           d="m 165.82728,-200.91356 -56.97119,26.10384 20.3097,3.46366 -14.45029,14.45028 a 59.761852,59.761852 0 0 1 7.05189,7.13579 l 14.49193,-14.49185 3.46358,20.30961 26.10384,-56.97117 z m -135.283377,128.185843 -12.40287,12.402869 -9.1912668,-0.999339 -11.2332519,11.23325 -11.2331753,11.233855 15.5884422,1.693129 1.6944113,15.588442 22.4657485,-22.465747 -0.99934,-9.189909 12.361978,-12.361979 a 59.761852,59.761852 0 0 1 -7.05196,-7.134496 z"
           id="path847"
           style="stroke-width:0.67148143" />
        <path
           style="opacity:0.89499996;stroke-width:0.26458001"
           inkscape:connector-curvature="0"
           d="m 43.615631,70.372988 10.285547,22.448026 1.364757,-8.002487 5.693761,5.693762 A 23.54762,23.54762 0 0 1 63.771388,87.73367 L 58.061222,82.023504 66.063709,80.658748 43.615684,70.3732 Z m 53.320807,50.526842 a 23.54762,23.54762 0 0 1 -2.811692,2.77809 l 4.887587,4.88759 -0.393775,3.62104 8.852052,8.85205 0.66764,-6.14222 6.14223,-0.66714 -4.42616,-4.42642 -4.42616,-4.42616 -3.62157,0.39377 -4.87039,-4.87039 z"
           id="path849" />
        <path
           inkscape:connector-curvature="0"
           d="m 78.947525,79.823786 c -3.145856,0 -6.16101,0.562603 -8.950742,1.591607 l 0.753418,0.753948 c 2.567061,-0.893381 5.324937,-1.38079 8.197218,-1.38079 2.872545,0 5.630527,0.487329 8.197747,1.38079 l 0.753418,-0.753445 C 85.108852,80.386733 82.093434,79.82376 78.947313,79.82376 Z M 54.6567,96.755319 c -1.029164,2.789731 -1.591608,5.805151 -1.591608,8.951271 0,3.14612 0.56255,6.16101 1.591608,8.95074 l 0.754979,-0.75498 c -0.892984,-2.56669 -1.379732,-5.32361 -1.379732,-8.19589 0,-2.87175 0.486351,-5.62947 1.379229,-8.196427 L 54.6567,96.755054 Z m 48.58218,0 -0.75345,0.753418 c 0.89339,2.567193 1.38027,5.325463 1.38027,8.197743 0,2.87255 -0.48681,5.63027 -1.38027,8.19722 l 0.75345,0.75345 c 1.02906,-2.78974 1.59214,-5.80463 1.59214,-8.95075 0,-3.14612 -0.56298,-6.161535 -1.59214,-8.951267 z M 87.144478,129.2431 c -2.566823,0.89298 -5.324144,1.37973 -8.196424,1.37973 -2.871751,0 -5.629204,-0.48635 -8.195895,-1.37923 l -0.754476,0.75448 c 2.789467,1.02889 5.804356,1.5916 8.950212,1.5916 3.146121,0 6.16101,-0.56308 8.950742,-1.59213 l -0.754477,-0.75448 z"
           dominant-baseline="auto"
           style="color:#000000;font-variant-ligatures:normal;font-variant-position:normal;font-variant-caps:normal;font-variant-numeric:normal;font-variant-alternates:normal;font-feature-settings:normal;text-indent:0;text-decoration:none;text-decoration-line:none;text-decoration-style:solid;text-decoration-color:#000000;text-transform:none;text-orientation:mixed;dominant-baseline:auto;white-space:normal;shape-padding:0;isolation:auto;mix-blend-mode:normal;solid-color:#000000;fill:#ff0000;stroke:#000000;stroke-width:0.96571702;color-rendering:auto;image-rendering:auto;shape-rendering:auto"
           id="path851" />
        <text
           xml:space="preserve"
           style="font-style:italic;font-variant:normal;font-weight:bold;font-stretch:normal;font-size:4.28532362px;line-height:1.25;font-family:sans-serif;-inkscape-font-specification:'sans-serif, Bold Italic';font-variant-ligatures:normal;font-variant-caps:normal;font-variant-numeric:normal;font-feature-settings:normal;text-align:center;letter-spacing:0px;word-spacing:0px;writing-mode:lr-tb;text-anchor:middle;opacity:0.95;fill:#f4c90b;fill-opacity:0.95686275;stroke:none;stroke-width:0.00837531;stroke-miterlimit:4;stroke-dasharray:none"
           x="24.047792"
           y="119.47727"
           id="text862"
           transform="matrix(0.82296808,-0.41663746,0.48966451,0.96721543,0,0)"><tspan
             y="119.47727"
             x="24.792702"
             sodipodi:role="line"
             id="tspan864">YOUR QUESTIONS </tspan><tspan
             y="124.83392"
             x="24.047792"
             sodipodi:role="line"
             id="tspan866">ANSWERED</tspan></text>
      </g>
    </g>
    <flowRoot
       xml:space="preserve"
       id="flowRoot892"
       style="font-style:normal;font-weight:normal;font-size:40px;line-height:1.25;font-family:sans-serif;letter-spacing:0px;word-spacing:0px;fill:#000000;fill-opacity:1;stroke:none"><flowRegion
         id="flowRegion894"><rect
           id="rect896"
           width="91.433311"
           height="40.793324"
           x="-209.59328"
           y="-700.39313" /></flowRegion><flowPara
         id="flowPara898" /></flowRoot>  </g>
</svg>
